<?xml version="1.0" standalone="no"?>
<!DOCTYPE svg PUBLIC "-//W3C//DTD SVG 20010904//EN"
 "http://www.w3.org/TR/2001/REC-SVG-20010904/DTD/svg10.dtd">
<svg version="1.0" xmlns="http://www.w3.org/2000/svg"
 width="400.000000pt" height="400.000000pt" viewBox="0 0 400.000000 400.000000"
 preserveAspectRatio="xMidYMid meet">
<metadata>
Created by potrace 1.11, written by Peter Selinger 2001-2013
</metadata>
<g transform="translate(0.000000,400.000000) scale(0.100000,-0.100000)"
fill="#000000" stroke="none">
<path d="M1767 3986 c4 -5 -1 -7 -10 -3 -10 3 -17 2 -17 -3 0 -6 -10 -6 -26 0
-22 9 -25 8 -20 -5 5 -13 2 -14 -15 -4 -15 8 -19 8 -15 0 4 -6 3 -11 -3 -11
-5 0 -12 6 -14 13 -4 9 -6 9 -6 -1 -1 -7 -5 -10 -11 -7 -5 3 -10 2 -10 -3 0
-5 -13 -8 -30 -7 -16 1 -30 -1 -30 -6 0 -4 -9 -6 -20 -4 -11 2 -20 0 -20 -5 0
-5 -9 -7 -20 -5 -11 2 -20 0 -20 -5 0 -5 -7 -7 -15 -4 -8 4 -15 1 -15 -4 0 -6
-9 -9 -20 -7 -11 2 -20 0 -20 -6 0 -5 -5 -9 -11 -9 -5 0 -7 6 -3 13 4 6 -3 2
-15 -10 -26 -28 -32 -29 -25 -5 5 16 5 16 -6 0 -6 -10 -18 -18 -26 -18 -9 0
-12 -5 -8 -11 4 -8 0 -8 -15 0 -15 8 -21 9 -21 1 0 -6 -4 -9 -9 -5 -6 3 -14
-3 -20 -12 -8 -14 -11 -15 -11 -3 0 12 -3 11 -11 -3 -8 -14 -14 -15 -32 -5
-20 10 -21 10 -8 -6 12 -14 12 -16 -4 -10 -11 5 -16 3 -12 -2 3 -6 -4 -11 -15
-11 -11 -1 -26 -10 -32 -19 -7 -9 -18 -14 -25 -10 -6 4 -14 0 -17 -8 -3 -9
-10 -16 -16 -16 -5 0 -6 6 -2 13 4 6 -2 4 -13 -6 -11 -9 -23 -14 -28 -10 -4 5
-5 3 -2 -3 4 -7 -1 -18 -10 -25 -14 -12 -16 -12 -9 1 4 8 1 7 -8 -4 -8 -10
-19 -15 -24 -12 -6 3 -13 -1 -16 -10 -4 -9 -13 -14 -21 -10 -8 3 -14 0 -12 -7
1 -7 -4 -11 -10 -10 -7 2 -13 -2 -13 -7 0 -6 -6 -10 -14 -10 -8 0 -17 -7 -20
-16 -4 -9 -9 -14 -13 -11 -9 10 -64 -33 -57 -45 5 -7 0 -9 -14 -6 -16 5 -19 2
-15 -11 4 -9 3 -13 -2 -9 -4 4 -15 -1 -24 -10 -10 -11 -12 -12 -6 -2 9 13 8
13 -7 1 -10 -7 -18 -19 -18 -27 0 -7 -5 -16 -12 -20 -7 -4 -8 -3 -4 4 5 8 1
10 -9 6 -9 -4 -14 -13 -11 -20 3 -8 -1 -14 -9 -14 -8 0 -15 -4 -15 -10 0 -5
-7 -10 -16 -10 -8 0 -12 -4 -9 -10 3 -5 2 -10 -4 -10 -12 0 -61 -44 -61 -54 0
-12 -27 -35 -34 -29 -3 4 -6 -1 -6 -11 0 -9 -5 -14 -10 -11 -6 3 -10 1 -10 -5
0 -7 -11 -21 -26 -32 -14 -11 -23 -22 -20 -25 6 -7 -17 -32 -25 -27 -4 2 -10
-3 -13 -12 -4 -10 -2 -13 7 -9 6 4 3 -1 -8 -10 -11 -9 -19 -20 -18 -25 2 -5
-6 -12 -17 -15 -11 -4 -18 -10 -15 -15 3 -5 1 -11 -5 -15 -6 -4 -8 -11 -4 -16
3 -5 0 -8 -8 -7 -7 2 -12 -3 -11 -9 2 -7 -2 -13 -9 -13 -6 0 -9 -3 -5 -6 7 -7
-15 -34 -24 -28 -3 2 -5 -8 -3 -21 1 -14 -1 -23 -6 -20 -4 3 -16 -7 -25 -21
-9 -15 -11 -23 -4 -19 8 5 10 4 5 -3 -4 -7 -14 -12 -21 -12 -9 0 -12 -6 -9
-15 4 -8 1 -15 -5 -15 -6 0 -8 -7 -5 -15 4 -8 -1 -17 -10 -21 -9 -3 -14 -10
-11 -14 3 -5 1 -11 -5 -15 -6 -4 -8 -11 -5 -16 4 -5 1 -9 -5 -9 -6 0 -9 -4 -6
-9 3 -5 -4 -20 -15 -35 -11 -14 -17 -30 -14 -36 3 -5 1 -10 -5 -10 -6 0 -9 -4
-5 -9 3 -5 1 -13 -5 -16 -8 -5 -7 -11 1 -21 10 -12 9 -13 -6 -7 -14 5 -17 3
-12 -10 3 -9 2 -17 -3 -17 -5 0 -6 -7 -3 -17 5 -12 3 -14 -8 -8 -11 7 -11 5 1
-10 9 -11 10 -16 3 -11 -11 6 -16 -2 -12 -16 0 -2 -5 -16 -12 -33 -6 -16 -13
-41 -16 -55 -2 -14 -6 -34 -8 -45 -2 -11 -4 -24 -4 -28 -1 -5 -5 -6 -10 -3 -4
3 -7 -6 -5 -19 1 -14 -1 -25 -6 -25 -4 0 -6 -13 -5 -30 1 -16 -1 -30 -6 -30
-5 0 -9 -5 -9 -11 0 -5 5 -7 10 -4 6 3 10 1 10 -4 0 -6 -4 -11 -8 -11 -5 0 -9
-6 -10 -12 0 -7 -2 -30 -3 -50 -1 -21 -5 -35 -9 -33 -9 5 -4 -70 5 -85 5 -8 4
-11 -2 -7 -5 4 -10 -44 -11 -124 -2 -99 0 -129 9 -123 8 5 9 3 4 -7 -11 -17
-16 -61 -6 -55 4 3 8 -1 8 -9 0 -8 -3 -12 -7 -10 -3 2 -4 -9 -2 -26 2 -16 8
-29 13 -29 5 0 5 -10 0 -22 -10 -27 -4 -51 11 -42 6 4 5 -2 -1 -15 -7 -13 -8
-21 -2 -21 5 0 8 -9 6 -20 -2 -11 0 -20 5 -20 5 0 7 -9 5 -20 -2 -11 2 -20 8
-20 7 0 6 -4 -3 -10 -11 -7 -11 -10 -2 -10 7 0 12 -6 10 -12 -1 -7 4 -24 11
-37 7 -13 8 -21 3 -17 -6 4 -8 -2 -5 -14 3 -11 9 -20 14 -20 5 0 8 -3 8 -7 -5
-30 3 -63 12 -57 8 4 9 0 4 -15 -4 -13 -2 -21 5 -21 6 0 8 -5 5 -10 -3 -6 0
-10 7 -10 9 0 9 -3 -2 -10 -13 -9 -8 -14 11 -12 4 1 5 -8 2 -18 -3 -11 -1 -20
5 -20 6 0 9 -11 8 -24 -2 -14 5 -31 16 -40 10 -9 16 -21 13 -26 -3 -6 -1 -10
5 -10 6 0 8 -4 5 -10 -3 -5 -1 -10 5 -10 6 0 9 -4 5 -9 -3 -5 2 -16 10 -24 9
-9 12 -23 8 -33 -5 -13 -3 -15 7 -9 10 6 12 4 7 -9 -4 -10 -3 -15 3 -11 11 7
32 -29 23 -39 -3 -3 -1 -6 6 -6 7 0 10 -4 7 -9 -3 -5 1 -11 9 -15 8 -3 15 -12
15 -21 0 -8 5 -15 11 -15 5 0 7 -5 4 -10 -3 -6 0 -13 9 -16 8 -3 17 -12 20
-20 4 -10 1 -13 -7 -9 -6 4 -2 -2 10 -13 12 -11 19 -22 16 -26 -4 -3 -1 -6 5
-6 6 0 14 -9 17 -20 3 -11 13 -20 21 -20 8 0 14 -4 14 -10 0 -17 3 -24 14 -36
6 -6 26 -30 45 -53 19 -22 41 -41 48 -41 7 0 13 -6 13 -14 0 -7 20 -35 45 -60
25 -26 45 -44 45 -41 0 4 9 -3 21 -16 11 -13 17 -18 13 -10 -5 9 -3 12 4 7 7
-4 12 -12 12 -17 0 -14 41 -48 58 -49 7 0 10 -4 7 -10 -6 -9 8 -14 28 -11 5 1
6 -3 2 -9 -3 -5 -1 -10 5 -10 6 0 9 -4 5 -9 -3 -6 4 -8 15 -6 11 2 19 1 17 -3
-2 -4 4 -15 15 -25 12 -11 18 -13 19 -5 0 7 5 3 11 -10 6 -12 17 -22 25 -22 7
0 13 -5 13 -12 0 -6 3 -8 7 -5 3 4 12 -1 20 -11 10 -11 12 -12 8 -2 -4 8 6 2
21 -15 20 -22 26 -24 20 -10 -6 16 -2 15 22 -8 15 -15 31 -24 35 -20 4 3 7 1
7 -5 0 -7 7 -12 15 -12 8 0 15 -4 15 -10 0 -5 9 -10 20 -10 11 0 20 -4 20 -10
0 -5 11 -10 25 -10 14 0 25 -3 25 -7 0 -5 14 -16 31 -25 18 -11 27 -13 24 -5
-4 6 1 3 9 -7 9 -11 16 -16 16 -12 0 5 6 4 12 -1 7 -6 23 -9 35 -8 12 1 20 -2
18 -6 -3 -4 2 -10 11 -13 10 -4 13 -2 9 7 -4 6 0 4 8 -6 9 -10 21 -15 31 -11
9 3 16 1 16 -6 0 -6 4 -8 10 -5 5 3 10 1 10 -6 0 -7 3 -9 7 -6 3 4 13 1 21 -6
13 -10 14 -9 8 1 -7 11 -4 12 13 3 12 -7 27 -9 33 -5 6 4 8 3 4 -4 -3 -6 -2
-13 4 -17 5 -3 10 -1 10 6 0 7 4 8 13 2 6 -5 19 -9 27 -8 8 0 21 -6 28 -15 8
-8 11 -9 7 -3 -7 15 11 18 20 3 4 -6 11 -8 16 -5 5 4 15 3 22 -2 11 -7 45 -12
100 -14 9 0 17 -4 17 -9 0 -11 33 -7 42 5 5 6 8 5 8 -4 0 -7 6 -11 14 -8 7 3
19 0 26 -6 10 -9 11 -9 6 1 -9 15 6 16 22 0 9 -9 12 -9 12 0 0 10 5 10 21 1
16 -8 20 -8 14 1 -6 9 -3 9 12 2 12 -7 24 -7 37 0 13 7 17 7 12 0 -8 -14 77
-12 86 2 5 7 8 7 8 -1 0 -7 5 -13 11 -13 5 0 8 4 5 9 -7 10 13 9 30 -1 12 -8
40 -5 50 5 4 4 14 1 22 -6 13 -9 14 -9 8 0 -5 9 0 13 16 13 13 -1 34 1 48 3
14 2 31 -1 38 -6 9 -7 11 -6 7 4 -4 11 3 14 27 13 18 0 44 5 57 13 13 9 20 10
17 4 -4 -6 -2 -11 3 -11 6 0 11 4 11 8 0 4 8 8 18 9 45 2 72 8 72 15 0 4 7 5
15 2 8 -4 15 -2 15 3 0 5 12 10 26 11 15 1 33 7 40 13 9 7 14 8 14 1 0 -7 8
-6 24 1 13 7 22 15 20 18 -2 4 7 6 21 4 14 -1 25 2 25 6 0 5 11 9 24 9 14 0
28 5 31 11 4 6 13 8 21 5 7 -3 18 2 23 12 5 9 13 14 17 10 4 -4 15 2 25 14 11
11 19 18 19 13 0 -4 8 -1 17 6 15 12 16 12 8 -1 -8 -13 -6 -13 8 -1 9 7 15 17
12 21 -2 4 3 7 13 7 34 0 43 3 37 13 -5 9 15 15 38 11 4 0 7 5 7 12 0 8 7 14
14 14 19 0 86 45 80 54 -2 4 6 5 18 1 14 -3 19 -2 14 6 -4 7 -1 12 8 12 9 0
16 7 16 16 0 9 6 14 13 11 6 -2 22 7 35 20 12 13 22 21 22 18 0 -3 6 0 14 7 8
7 12 16 9 20 -2 4 2 5 10 2 9 -3 24 7 37 23 12 15 25 28 28 28 4 0 6 3 5 7 -2
5 6 8 17 8 11 0 20 5 20 11 0 5 5 7 12 3 7 -4 8 -3 4 5 -5 7 -13 9 -20 4 -7
-4 -3 0 7 9 11 10 23 15 28 12 5 -3 9 1 9 8 0 15 41 54 53 50 4 -1 7 7 7 19 0
12 4 17 11 14 6 -4 13 2 16 14 3 11 8 19 12 18 3 -2 20 10 36 27 17 16 23 25
15 20 -11 -6 -10 -3 2 7 9 9 14 20 10 24 -4 5 0 6 9 2 13 -4 16 -1 12 14 -3
11 -2 19 3 17 5 -2 10 1 11 5 1 5 10 16 21 25 10 9 17 24 14 32 -3 8 -1 12 3
8 9 -9 38 19 41 40 2 8 8 18 14 22 6 4 12 16 13 28 0 11 6 20 11 19 9 -2 11 2
15 34 0 5 5 8 10 5 10 -7 25 22 22 42 -1 6 4 12 10 12 7 0 9 3 6 6 -4 4 3 20
14 36 12 16 19 32 16 35 -4 3 1 12 9 20 8 8 12 19 9 24 -4 5 -1 9 6 9 7 0 10
3 6 6 -3 4 1 13 9 21 8 8 12 19 9 24 -4 5 0 9 7 9 10 0 9 3 -2 10 -12 8 -12
10 3 16 9 3 14 10 11 15 -3 5 5 26 17 46 14 22 17 33 8 28 -12 -8 -12 -6 -1 8
8 9 11 21 7 27 -3 5 -1 10 6 10 7 0 9 3 6 7 -4 3 -2 12 4 20 6 7 8 13 4 13 -4
0 -1 8 6 17 9 11 10 14 2 9 -9 -5 -11 -2 -7 8 3 9 10 16 15 16 5 0 9 5 9 11 0
5 -6 7 -12 3 -7 -4 -5 2 5 13 9 11 17 24 17 29 0 5 -5 2 -10 -6 -6 -9 -10 -10
-10 -3 0 6 5 15 10 18 6 4 8 11 5 16 -4 5 -1 9 5 9 8 0 7 6 -1 21 -8 16 -8 20
1 14 7 -4 10 -2 9 6 -1 8 2 37 6 64 5 28 8 56 6 64 -1 7 2 11 7 7 5 -3 9 1 9
9 0 8 -4 12 -9 9 -4 -3 -8 0 -8 5 0 6 5 11 10 11 6 0 10 5 10 11 0 5 -5 7 -11
4 -6 -4 -5 2 2 13 11 17 10 24 -2 38 -10 12 -10 15 -1 10 10 -6 13 20 11 133
-1 96 -5 141 -13 141 -6 0 -4 5 4 10 13 9 13 11 1 19 -12 8 -12 12 -2 25 10
12 10 16 2 16 -7 0 -10 4 -7 9 4 5 0 12 -6 14 -10 4 -10 6 0 6 7 1 11 5 8 9
-3 5 -9 27 -15 50 -6 31 -6 40 3 35 7 -4 6 -1 -1 9 -7 8 -10 18 -6 21 3 4 0 7
-8 7 -11 0 -11 2 1 10 8 5 10 10 3 10 -6 0 -10 11 -9 25 2 13 0 22 -5 20 -4
-3 -10 -1 -14 5 -3 5 -1 10 6 10 8 0 9 3 0 13 -6 8 -8 16 -5 19 3 4 -1 19 -9
35 -8 15 -13 38 -12 50 1 13 -3 19 -8 16 -6 -4 -8 0 -4 10 4 10 1 17 -5 17 -6
0 -8 3 -5 7 4 3 -1 12 -11 20 -15 13 -15 14 0 9 15 -4 15 -3 0 27 -9 18 -19
34 -22 37 -3 3 -5 12 -5 20 1 8 -6 24 -14 34 -14 16 -14 18 -1 11 13 -8 13 -7
0 11 -8 10 -19 22 -25 26 -5 4 -6 8 -2 8 5 0 -1 12 -12 27 -12 15 -19 34 -16
44 3 9 0 21 -6 25 -8 5 -9 3 -4 -6 5 -9 4 -11 -3 -6 -7 4 -12 16 -12 27 0 10
-5 19 -11 19 -5 0 -7 5 -4 10 3 6 1 10 -6 10 -7 0 -10 3 -7 6 4 3 -2 14 -13
25 -10 10 -16 25 -13 34 4 10 2 15 -7 13 -8 -2 -18 11 -23 30 -6 17 -14 32
-19 32 -4 0 -5 -6 -1 -12 4 -8 3 -10 -2 -5 -5 5 -9 12 -10 15 -2 20 -17 41
-25 36 -5 -3 -6 1 -3 9 3 8 -2 17 -10 20 -9 4 -16 13 -16 20 0 8 -10 19 -22
25 -13 6 -17 11 -10 11 6 1 12 6 12 11 0 6 -4 9 -8 8 -4 -2 -23 13 -42 32 -19
19 -39 34 -44 32 -5 -2 -3 5 4 15 8 10 10 15 6 11 -5 -4 -19 3 -31 17 -13 13
-26 21 -29 18 -3 -4 -6 -1 -6 5 0 16 -71 83 -82 76 -4 -3 -7 -1 -6 5 4 12 -82
91 -99 91 -6 0 -15 5 -19 12 -5 7 -2 8 7 3 8 -5 11 -4 6 1 -5 5 -12 9 -15 9
-14 0 -82 45 -82 54 0 5 -13 14 -29 19 -15 6 -39 21 -51 34 -13 12 -19 16 -15
8 7 -12 6 -13 -7 -3 -8 7 -19 9 -23 5 -5 -4 -6 -2 -3 3 7 11 -10 28 -32 33 -8
2 -16 8 -18 13 -2 5 -12 9 -23 9 -10 0 -19 5 -19 11 0 5 -4 7 -10 4 -5 -3 -10
-1 -10 4 0 6 -3 11 -7 10 -16 -2 -53 14 -53 23 0 5 -4 6 -10 3 -5 -3 -10 -1
-10 5 0 6 -4 8 -10 5 -5 -3 -10 -1 -10 5 0 6 -4 8 -10 5 -5 -3 -10 -1 -10 5 0
6 -5 8 -10 5 -6 -4 -17 -1 -25 5 -8 7 -15 9 -15 5 0 -5 -10 0 -22 11 -12 10
-18 13 -13 5 4 -8 -3 -6 -21 5 -17 12 -25 14 -20 6 7 -11 4 -12 -13 -3 -11 7
-21 17 -21 24 0 7 -4 6 -10 -3 -5 -8 -10 -10 -10 -3 0 6 -9 9 -20 6 -11 -3
-20 0 -20 6 0 6 -7 8 -17 4 -10 -4 -14 -2 -10 4 5 7 -1 9 -15 5 -12 -3 -19 -1
-15 5 3 5 -8 8 -29 7 -19 -2 -34 1 -34 7 0 6 -4 7 -10 4 -5 -3 -10 -2 -10 4 0
10 -25 9 -36 -2 -4 -4 -12 -3 -18 2 -6 5 -22 11 -36 13 -14 1 -28 8 -32 13 -5
6 -8 5 -8 -4 0 -11 -3 -11 -15 -1 -8 7 -15 9 -15 5 0 -4 -8 -1 -17 6 -14 12
-16 12 -8 0 6 -11 4 -13 -11 -7 -10 4 -36 10 -57 12 -30 4 -37 2 -31 -8 6 -10
5 -11 -7 -1 -19 15 -282 16 -272 0 4 -6 1 -7 -8 -2 -19 12 -79 13 -72 1z
m-937 -381 c-7 -9 -15 -13 -19 -10 -3 3 1 10 9 15 21 14 24 12 10 -5z m667
-230 c43 -1 69 3 66 8 -4 6 -1 7 8 1 19 -12 159 -13 152 -1 -4 6 -1 7 8 1 21
-13 159 -13 151 0 -3 6 2 5 11 -2 10 -9 27 -11 47 -7 22 5 30 3 30 -7 1 -8 4
-7 11 4 8 14 15 15 35 8 14 -6 37 -7 51 -4 20 5 24 4 19 -7 -4 -8 0 -5 8 5 12
15 16 16 16 5 0 -11 2 -11 9 -1 6 11 10 10 15 -4 5 -12 10 -14 18 -6 6 6 17 8
26 5 11 -5 13 -3 7 8 -8 12 -6 12 8 0 9 -7 17 -10 17 -6 0 4 8 1 17 -6 13 -11
15 -11 9 -1 -6 9 -1 12 16 10 12 -2 29 -7 37 -12 10 -6 12 -5 7 2 -8 13 6 16
18 5 11 -11 40 -10 48 2 4 6 8 2 8 -8 0 -15 3 -16 20 -7 11 6 20 7 20 2 0 -10
8 -11 62 -15 20 -1 36 -6 35 -12 -1 -5 6 -9 16 -7 9 2 17 -2 17 -8 0 -6 4 -9
9 -6 5 3 14 -1 21 -9 7 -8 16 -12 21 -9 5 3 9 0 9 -7 0 -7 3 -9 7 -6 3 4 12
-1 20 -11 8 -9 12 -11 8 -5 -4 9 -1 11 9 7 9 -3 13 -10 10 -15 -3 -5 2 -9 11
-9 8 0 18 -7 22 -16 3 -8 12 -13 20 -10 8 3 12 2 9 -2 -3 -5 12 -19 33 -33 20
-13 38 -28 39 -32 3 -15 30 -36 38 -29 5 4 2 -1 -6 -11 -11 -16 -11 -18 1 -15
8 2 13 -3 12 -9 -3 -12 10 -17 30 -14 5 1 6 -3 3 -8 -8 -13 4 -42 15 -35 5 3
9 2 8 -3 -1 -4 0 -11 1 -15 1 -5 3 -14 4 -20 1 -7 8 -12 16 -10 8 2 12 0 7 -4
-4 -4 0 -18 8 -31 9 -13 13 -28 10 -33 -3 -6 -1 -10 4 -10 6 0 11 -11 11 -24
0 -14 5 -28 11 -31 6 -4 8 -13 5 -20 -2 -7 -2 -16 2 -20 8 -8 13 -54 13 -108
0 -21 3 -36 7 -33 11 6 8 -51 -2 -61 -5 -5 -6 -2 -1 6 5 10 4 12 -4 7 -6 -4
-8 -13 -4 -19 10 -16 11 -28 1 -54 -5 -16 -4 -23 5 -23 7 0 8 -3 2 -8 -11 -8
-18 -27 -19 -54 0 -10 -4 -18 -9 -18 -4 0 -6 -4 -2 -9 3 -5 1 -12 -4 -15 -5
-4 -8 -14 -7 -23 2 -10 -3 -24 -11 -31 -7 -8 -11 -18 -8 -23 4 -5 2 -9 -2 -9
-5 0 -17 -14 -27 -31 -13 -23 -15 -30 -5 -25 8 4 4 -1 -8 -12 -12 -11 -19 -22
-16 -26 4 -3 1 -6 -6 -6 -7 0 -9 -4 -6 -10 3 -5 -1 -10 -10 -10 -9 0 -13 -4
-10 -10 3 -5 1 -10 -4 -10 -6 0 -11 -5 -11 -10 0 -18 -105 -112 -114 -103 -3
4 -6 -1 -6 -11 0 -9 -5 -14 -10 -11 -6 3 -14 -4 -19 -17 -6 -13 -10 -17 -11
-8 -1 13 -2 13 -13 -1 -7 -9 -20 -15 -30 -13 -11 1 -16 0 -13 -3 7 -7 -41 -33
-61 -33 -8 0 -12 -4 -8 -9 3 -6 -4 -8 -15 -6 -11 2 -20 -1 -20 -7 0 -6 -3 -8
-7 -5 -3 4 -13 2 -20 -5 -8 -6 -29 -13 -46 -15 -18 -2 -44 -4 -59 -6 -15 -1
-30 -6 -34 -10 -4 -4 -14 -1 -22 6 -13 9 -14 9 -8 0 4 -7 2 -13 -3 -13 -6 0
-11 6 -11 13 0 8 -4 7 -10 -3 -5 -8 -10 -10 -10 -5 0 6 -5 3 -10 -5 -5 -8 -10
-10 -10 -3 0 13 -18 12 -39 -1 -9 -6 -12 -5 -7 2 4 8 -5 10 -31 7 -22 -2 -41
2 -45 8 -5 8 -8 5 -8 -8 0 -12 -3 -16 -8 -9 -8 14 -54 13 -64 -1 -5 -6 -8 -5
-8 2 0 7 -7 10 -15 7 -9 -4 -15 -1 -15 7 0 8 -6 5 -16 -7 -8 -10 -13 -14 -9
-7 4 9 -8 11 -46 7 -40 -4 -49 -2 -43 8 4 7 -2 5 -13 -5 -14 -12 -23 -15 -28
-7 -8 12 -37 10 -47 -5 -5 -6 -8 -5 -8 2 0 7 -7 10 -15 7 -9 -4 -15 -1 -15 7
0 8 -6 5 -16 -7 -8 -10 -12 -13 -8 -5 4 9 2 12 -7 9 -8 -3 -22 -1 -33 4 -12 7
-16 7 -12 0 3 -6 2 -13 -4 -17 -5 -3 -10 -2 -10 3 0 5 -15 8 -32 7 -18 -2 -36
2 -40 8 -6 9 -8 9 -8 0 0 -7 -7 -10 -17 -6 -11 4 -14 3 -9 -5 5 -8 2 -10 -8
-6 -9 3 -16 3 -16 0 0 -11 38 -44 44 -38 4 3 13 -4 22 -16 8 -12 19 -20 23
-18 4 3 14 -6 21 -19 7 -13 16 -22 20 -20 4 2 20 -9 35 -25 16 -17 34 -30 40
-30 6 0 17 -9 25 -19 7 -11 17 -18 21 -16 4 3 9 -2 13 -10 3 -8 12 -15 21 -15
8 0 15 -7 15 -15 0 -9 6 -12 17 -8 11 4 14 3 9 -5 -4 -7 -2 -12 3 -12 6 0 20
-8 31 -17 10 -10 30 -28 44 -40 13 -12 27 -19 30 -16 3 4 6 1 6 -6 0 -7 5 -9
10 -6 6 3 10 -1 10 -10 0 -9 5 -13 10 -10 6 3 10 1 10 -5 0 -6 5 -8 10 -5 6 4
9 1 8 -6 -2 -7 8 -16 22 -20 14 -4 21 -7 17 -8 -11 -1 19 -31 31 -31 6 0 13
-7 16 -16 4 -9 9 -14 13 -11 3 4 17 -5 30 -19 12 -14 28 -22 33 -19 6 4 9 3 8
-2 -2 -4 1 -9 5 -10 5 -1 19 -13 31 -26 13 -14 33 -30 45 -36 12 -7 19 -16 16
-21 -3 -5 4 -7 15 -5 11 2 18 0 15 -6 -4 -5 1 -9 9 -9 9 0 16 -7 16 -15 0 -8
12 -18 26 -21 15 -4 23 -12 20 -19 -3 -9 3 -11 17 -8 16 3 18 2 9 -5 -11 -7
-10 -11 5 -16 25 -9 70 -36 60 -36 -5 0 -5 -5 -1 -11 5 -8 9 -8 14 1 6 9 10 7
14 -8 4 -11 16 -22 27 -25 14 -4 18 -10 13 -19 -4 -7 -4 -10 1 -6 4 4 14 0 22
-8 8 -8 19 -11 25 -8 6 4 8 2 5 -3 -4 -6 1 -17 10 -24 14 -12 16 -12 8 1 -8
13 -7 13 8 1 9 -7 17 -20 17 -27 0 -8 5 -14 11 -14 5 0 7 6 3 13 -4 6 9 -5 28
-25 20 -21 41 -38 48 -38 15 0 60 -46 53 -54 -3 -2 6 -2 19 1 18 4 20 3 8 -6
-13 -9 -13 -11 1 -11 9 0 32 -15 50 -32 18 -18 27 -24 20 -13 -8 11 3 2 24
-20 21 -22 34 -33 30 -25 -7 12 -6 13 6 2 16 -14 22 -112 7 -112 -5 0 -6 -4
-3 -10 3 -5 -1 -10 -9 -10 -9 0 -16 -4 -16 -9 0 -4 -22 -8 -50 -8 -27 0 -50 4
-50 9 0 5 -5 6 -10 3 -6 -3 -10 4 -10 16 0 17 -3 19 -14 10 -11 -9 -15 -8 -20
4 -3 9 -10 13 -16 10 -6 -4 -7 1 -3 11 4 12 3 15 -5 10 -7 -4 -12 -2 -12 3 0
6 -7 11 -16 11 -8 0 -12 5 -9 10 3 6 1 10 -5 10 -7 0 -19 8 -28 18 -10 11 -13
12 -8 2 5 -8 -5 0 -22 18 -18 19 -37 30 -44 26 -7 -4 -8 -3 -4 4 4 7 1 12 -9
12 -9 0 -13 4 -10 10 3 5 -1 10 -9 10 -9 0 -16 5 -16 10 0 6 -16 18 -35 27
-19 9 -35 23 -35 30 0 8 -5 11 -10 8 -6 -3 -14 4 -19 17 -6 13 -10 17 -11 8 0
-12 -3 -11 -11 3 -6 9 -14 15 -20 12 -5 -4 -9 1 -9 9 0 9 -7 16 -15 16 -8 0
-15 5 -15 10 0 6 -7 10 -15 10 -8 0 -15 7 -15 15 0 9 -6 12 -17 8 -12 -5 -15
-2 -10 10 3 9 3 16 -1 16 -21 -3 -32 3 -33 19 0 9 -3 12 -5 5 -5 -11 -21 0
-85 60 -10 9 -19 14 -19 10 0 -3 -8 4 -19 15 -10 12 -21 19 -25 15 -3 -3 -6 1
-6 10 0 10 -7 17 -15 17 -8 0 -15 5 -15 10 0 6 -7 10 -15 10 -8 0 -15 4 -15 8
0 4 -18 19 -39 32 -22 14 -42 33 -45 44 -2 10 -9 15 -15 11 -6 -3 -25 9 -42
27 -18 18 -28 26 -24 18 3 -8 -3 -4 -14 10 -11 14 -21 21 -21 16 0 -4 -13 6
-29 23 -15 16 -31 28 -34 24 -4 -3 -9 2 -13 11 -3 9 -10 13 -15 10 -5 -3 -9 2
-9 11 0 11 -5 15 -16 11 -8 -3 -13 -2 -11 2 5 9 -25 36 -44 40 -8 2 -19 10
-25 17 -6 8 -14 12 -17 8 -4 -3 -7 1 -7 11 0 10 -12 21 -31 28 -21 7 -28 15
-24 26 5 13 3 13 -12 1 -11 -9 -14 -10 -9 -1 4 7 2 12 -4 12 -6 0 -8 5 -4 12
4 6 3 8 -4 4 -6 -3 -22 5 -35 18 -14 14 -27 23 -30 20 -3 -3 -14 7 -26 22 -11
15 -21 23 -21 18 0 -5 -11 3 -24 18 -12 15 -26 25 -30 21 -3 -3 -6 0 -6 7 0 7
-3 10 -7 7 -3 -4 -13 2 -20 13 -20 28 -35 16 -22 -18 11 -29 11 -29 -2 -54 -7
-12 -6 -18 1 -18 6 0 8 -5 5 -11 -10 -16 -12 -79 -2 -79 4 0 4 -8 -2 -17 -6
-11 -6 -24 0 -35 7 -12 6 -18 -1 -18 -8 0 -8 -6 0 -20 8 -14 8 -26 0 -40 -8
-14 -8 -20 0 -20 7 0 7 -6 0 -21 -8 -15 -8 -24 0 -34 8 -9 8 -15 0 -20 -7 -4
-7 -12 0 -26 8 -13 7 -19 0 -19 -7 0 -8 -6 0 -19 7 -14 7 -22 0 -26 -8 -5 -7
-11 1 -21 9 -11 9 -14 -1 -14 -10 0 -10 -3 -1 -14 8 -10 9 -16 1 -21 -7 -4 -7
-12 0 -26 8 -13 7 -19 0 -19 -7 0 -8 -6 0 -19 7 -14 7 -22 0 -26 -8 -5 -7 -11
1 -21 9 -11 9 -14 -1 -14 -10 0 -10 -3 -1 -14 8 -10 9 -16 1 -21 -7 -4 -7 -12
0 -26 8 -13 7 -19 0 -19 -7 0 -8 -6 0 -19 7 -14 7 -22 0 -26 -8 -5 -7 -11 1
-21 9 -11 9 -14 -1 -14 -10 0 -10 -3 -1 -14 8 -10 9 -16 1 -21 -7 -4 -7 -12 0
-26 8 -13 7 -19 0 -19 -7 0 -8 -6 0 -19 7 -14 7 -22 0 -26 -8 -5 -7 -11 1 -21
9 -11 8 -14 -2 -14 -10 0 -10 -3 -2 -11 8 -8 8 -20 3 -35 -7 -17 -6 -24 3 -24
8 0 7 -4 -3 -10 -8 -5 -12 -10 -7 -10 11 0 -31 -40 -43 -40 -5 0 -10 -6 -11
-12 0 -10 -2 -10 -6 -1 -3 9 -10 10 -24 3 -13 -8 -19 -7 -19 0 0 6 -5 8 -10 5
-5 -3 -10 -1 -10 4 0 6 -9 11 -20 11 -15 0 -20 7 -20 25 0 14 -5 25 -10 25 -7
0 -7 6 -1 19 6 10 8 21 4 24 -9 9 -9 87 0 87 4 0 3 9 -3 19 -5 11 -6 22 -2 25
5 3 5 30 2 60 -3 31 -2 56 2 56 5 0 4 9 -2 19 -5 11 -6 22 -2 25 5 3 5 30 2
60 -3 31 -2 56 2 56 5 0 4 9 -2 19 -5 11 -6 22 -2 25 5 3 5 30 2 60 -3 31 -2
56 2 56 5 0 4 9 -2 19 -6 12 -6 22 -1 25 5 3 5 21 1 41 -5 21 -4 35 1 35 6 0
5 8 -1 19 -7 14 -7 22 0 26 8 5 7 11 -1 21 -9 11 -9 14 0 14 8 0 9 5 1 19 -5
11 -7 22 -2 24 4 3 5 39 2 81 -3 42 -1 76 3 76 4 0 3 9 -3 19 -5 11 -7 22 -2
24 4 3 5 39 2 81 -3 42 -1 76 3 76 4 0 3 9 -3 19 -7 14 -7 22 0 26 8 5 7 11
-1 21 -9 11 -9 14 0 14 8 0 9 5 1 19 -5 11 -7 22 -2 24 4 3 5 39 2 81 -3 42
-1 76 3 76 4 0 3 9 -3 19 -5 11 -7 22 -2 24 4 3 5 39 2 81 -3 42 -1 76 3 76 4
0 3 9 -3 19 -7 14 -7 22 0 26 8 5 7 11 -1 21 -9 11 -9 14 0 14 8 0 9 5 1 19
-5 11 -7 22 -2 24 4 3 5 39 2 81 -3 42 -1 76 3 76 4 0 3 9 -3 19 -5 11 -7 22
-2 24 4 3 5 39 2 81 -3 42 -1 76 3 76 4 0 3 9 -3 19 -7 14 -7 22 0 26 8 5 7
11 -1 21 -9 11 -9 14 0 14 8 0 9 5 1 19 -5 11 -7 22 -2 24 4 3 5 39 2 81 -3
42 -1 76 3 76 4 0 3 8 -2 19 -6 10 -7 21 -4 25 4 4 6 27 6 51 -1 26 4 51 12
59 8 7 11 17 7 21 -4 5 -1 5 6 1 7 -4 15 -1 18 9 6 13 8 14 15 3 5 -7 9 -8 9
-2 0 7 27 10 80 9 51 -1 77 2 73 8 -4 6 -1 7 8 1 8 -5 46 -9 86 -9z"/>
<path d="M1392 3192 c-7 -9 -10 -11 -7 -4 4 7 -1 12 -10 12 -9 0 -14 -4 -11
-8 2 -4 1 -14 -4 -22 -4 -7 -4 -23 0 -35 5 -14 4 -27 -3 -34 -6 -6 -7 -11 -1
-11 11 0 12 -60 1 -77 -4 -6 -3 -14 3 -18 6 -4 7 -12 3 -18 -4 -6 -6 -27 -5
-47 2 -33 3 -44 2 -72 -1 -7 1 -28 3 -46 2 -18 -1 -36 -5 -38 -5 -3 -4 -12 2
-19 8 -10 8 -15 0 -20 -8 -5 -8 -10 0 -20 8 -10 8 -15 0 -20 -8 -5 -8 -10 0
-20 6 -7 7 -15 3 -18 -5 -3 -7 -23 -5 -44 1 -21 3 -44 2 -50 0 -7 0 -19 0 -25
-1 -7 1 -28 3 -46 2 -18 -1 -36 -5 -38 -5 -3 -4 -12 2 -19 7 -9 8 -15 1 -19
-7 -5 -7 -15 -1 -31 6 -17 6 -25 -1 -25 -6 0 -7 -6 -3 -12 11 -18 12 -48 2
-48 -5 0 -6 -4 -3 -10 10 -16 12 -80 2 -80 -5 0 -5 -6 2 -13 8 -10 7 -17 -2
-26 -8 -8 -8 -14 -2 -19 6 -4 10 -14 10 -22 -1 -17 13 -30 33 -30 7 0 10 5 6
12 -4 7 -3 8 5 4 21 -13 83 -17 75 -5 -5 8 -1 8 13 0 14 -7 24 -7 33 2 8 7 10
7 7 1 -5 -8 12 -11 53 -10 32 0 56 4 53 9 -3 5 3 4 14 -2 14 -7 24 -7 33 2 8
7 10 7 7 1 -5 -8 12 -11 53 -10 32 0 56 4 53 9 -3 5 3 4 14 -2 14 -7 24 -7 33
2 10 9 11 9 6 -1 -5 -9 2 -11 28 -10 20 2 36 8 36 13 0 6 4 4 9 -4 6 -9 11
-10 15 -2 4 6 13 8 19 4 22 -14 59 -15 51 -2 -5 8 -3 9 7 3 8 -4 23 -9 34 -9
11 0 25 -4 32 -8 6 -4 15 -2 19 4 5 8 3 9 -7 4 -8 -5 -11 -4 -6 0 12 14 55 12
50 -2 -4 -9 0 -11 11 -7 9 3 13 10 10 15 -3 5 7 4 21 -1 34 -13 38 -13 29 2
-5 7 -3 8 7 2 18 -11 48 -12 75 -3 13 4 26 3 33 -4 8 -8 11 -8 11 2 0 7 4 10
9 6 5 -3 12 -2 15 3 2 4 20 7 40 7 19 -1 33 2 30 7 -5 8 17 12 45 9 7 -2 11 1
8 6 -3 5 6 13 19 20 13 6 21 7 18 1 -3 -5 3 -4 14 3 12 7 18 17 16 21 -3 5 -2
8 3 7 4 -1 16 -1 27 0 16 1 16 3 6 17 -8 8 -9 14 -4 13 26 -6 94 43 94 68 0 8
5 11 10 8 6 -3 10 0 10 8 0 8 7 18 16 21 10 4 14 12 10 22 -4 11 1 18 14 21
11 3 17 9 14 14 -3 5 0 9 7 9 8 0 8 4 -1 15 -10 12 -10 15 4 15 14 0 21 18 17
43 0 4 3 7 9 7 5 0 7 7 4 15 -4 8 -1 15 6 15 10 0 10 3 0 15 -10 12 -10 15 0
15 7 0 10 7 6 15 -3 8 0 15 6 15 7 0 7 4 -1 14 -9 11 -9 16 0 22 8 5 9 3 4 -6
-5 -8 -4 -11 3 -6 6 4 9 13 6 21 -4 8 -11 12 -18 8 -8 -5 -8 -3 0 8 11 14 9
91 -3 119 -3 8 -7 26 -8 40 -4 39 -4 41 -14 36 -4 -3 -7 6 -5 20 1 15 -4 28
-12 31 -11 4 -12 8 -3 20 10 11 10 13 -1 11 -7 -2 -16 6 -19 17 -6 20 -13 30
-71 93 -13 15 -24 30 -22 34 1 5 -4 7 -11 5 -6 -1 -11 4 -9 11 1 8 -2 11 -6 8
-8 -5 -22 4 -70 45 -8 6 -24 12 -37 13 -13 0 -23 6 -22 11 1 6 -6 9 -15 9 -10
-1 -18 2 -18 7 0 5 -3 8 -7 8 -5 -1 -10 0 -13 1 -11 4 -47 11 -75 14 -16 2
-31 5 -32 6 -2 1 -7 3 -12 4 -5 0 -12 4 -16 8 -11 11 -36 -3 -28 -16 5 -8 3
-8 -8 0 -8 6 -37 10 -66 9 -32 -1 -50 2 -46 8 4 6 1 7 -8 2 -20 -13 -60 -15
-53 -3 4 6 -3 5 -15 -2 -16 -8 -26 -8 -35 -1 -7 6 -15 8 -18 6 -12 -12 -48
-13 -48 -2 0 8 -3 8 -8 2 -9 -13 -95 -14 -104 0 -5 7 -8 7 -8 0 0 -9 -44 -13
-60 -5 -3 1 -9 1 -15 0 -38 -8 -45 -8 -50 1 -4 5 -12 6 -18 2 -17 -11 -77 -11
-77 -1 0 5 -6 6 -12 1 -19 -11 -72 -11 -80 1 -5 8 -8 8 -8 1 0 -9 -44 -13 -60
-5 -3 1 -9 1 -15 0 -25 -6 -50 -5 -55 2 -3 4 -11 -1 -18 -10z m1268 -916 c0
-2 -8 -10 -17 -17 -16 -13 -17 -12 -4 4 13 16 21 21 21 13z"/>
</g>
</svg>
